<svg data-v-423bf9ae="" xmlns="http://www.w3.org/2000/svg" viewBox="0 0 318 90" class="iconLeft"><!----><!----><!----><g data-v-423bf9ae="" id="85527138-942f-47a7-85d4-9d9bb95f4911" fill="#000000" transform="matrix(4.3509786814039195,0,0,4.3509786814039195,115.97107460735602,5.210297966841182)"><path d="M0.38 12.42L4.10 12.42L4.10 11.87L3.40 11.87C2.46 11.87 2.45 11.83 2.45 11.47L2.45 8.44C2.48 8.44 3.42 8.74 4.42 8.74C6.44 8.74 7.38 7.42 7.38 6.19C7.38 5.07 6.86 4.23 6.19 3.68C5.53 3.15 4.76 3.08 3.32 3.08L0.43 3.08L0.42 3.64L0.78 3.64C1.23 3.64 1.32 3.67 1.32 4.14L1.32 11.47C1.32 11.83 1.30 11.87 0.81 11.87L0.38 11.87ZM2.45 8.02L2.45 4.28C2.45 3.70 2.55 3.64 2.87 3.64C4.61 3.64 6.06 4.51 6.06 6.16C6.06 7.56 5.24 8.29 3.77 8.29C2.81 8.29 2.45 8.02 2.45 8.02ZM8.23 7.20L8.27 7.63C8.57 7.57 9.00 7.48 9.13 7.48C9.30 7.48 9.32 7.60 9.32 7.98L9.32 11.40C9.32 11.94 9.28 11.97 8.71 11.97L8.44 11.97L8.44 12.42L11.79 12.42L11.79 11.97L11.19 11.97C10.37 11.97 10.30 11.91 10.30 11.40L10.30 9.03C10.30 8.48 11.00 8.04 11.45 8.04C11.65 8.04 11.79 8.13 11.79 8.36L11.79 8.54L12.01 8.62L12.54 7.24C12.54 7.24 12.36 6.89 11.77 6.89C10.96 6.89 10.32 8.26 10.28 8.32L10.28 6.73C8.51 7.17 8.82 7.08 8.23 7.20ZM13.13 9.69C13.13 11.10 14.04 12.63 15.93 12.63C17.72 12.63 18.84 11.41 18.84 9.84C18.84 8.61 18.26 6.80 15.90 6.80C13.99 6.80 13.13 8.23 13.13 9.69ZM14.25 9.35C14.25 7.98 14.97 7.28 15.78 7.28C16.79 7.28 17.67 8.11 17.67 9.80C17.67 10.96 17.26 12.08 16.11 12.08C14.97 12.08 14.25 10.64 14.25 9.35ZM19.18 15.60L19.19 16.04L22.41 16.04L22.43 15.60L22.22 15.60C21.34 15.60 21.11 15.58 21.11 15.25L21.11 12.35C21.11 12.35 21.87 12.59 22.85 12.59C24.46 12.59 25.52 11.31 25.52 9.60C25.52 8.15 24.53 6.90 23.20 6.90C22.13 6.90 21.11 7.94 21.11 7.94L21.11 6.79C20.38 6.99 19.78 7.15 19.26 7.25L19.28 7.70C19.57 7.64 19.78 7.56 19.91 7.56C20.05 7.56 20.13 7.66 20.13 7.95L20.13 15.26C20.13 15.57 20.03 15.60 19.18 15.60ZM21.11 11.65L21.11 8.37C21.25 8.26 21.78 7.73 22.57 7.73C23.66 7.73 24.53 8.76 24.53 10.05C24.53 10.79 24.19 12.12 22.81 12.12C21.83 12.12 21.11 11.65 21.11 11.65ZM26.19 9.86C26.19 10.93 26.78 12.60 28.76 12.60C30.27 12.60 31.30 11.42 31.30 11.16C31.30 11.03 31.25 10.99 31.18 10.99C30.94 10.99 30.42 11.65 29.32 11.65C28.14 11.65 27.24 10.86 27.24 9.45C27.24 9.38 27.26 9.30 27.26 9.25L30.77 8.83C30.83 8.83 31.00 8.78 31.00 8.62C31.00 8.13 30.20 6.83 28.67 6.83C27.29 6.83 26.19 8.04 26.19 9.86ZM27.29 8.76C27.44 7.84 27.97 7.31 28.53 7.31C29.30 7.31 29.69 8.46 29.69 8.46ZM31.88 7.20L31.92 7.63C32.21 7.57 32.65 7.48 32.77 7.48C32.94 7.48 32.97 7.60 32.97 7.98L32.97 11.40C32.97 11.94 32.93 11.97 32.35 11.97L32.09 11.97L32.09 12.42L35.43 12.42L35.43 11.97L34.83 11.97C34.02 11.97 33.95 11.91 33.95 11.40L33.95 9.03C33.95 8.48 34.65 8.04 35.10 8.04C35.29 8.04 35.43 8.13 35.43 8.36L35.43 8.54L35.66 8.62L36.19 7.24C36.19 7.24 36.01 6.89 35.42 6.89C34.61 6.89 33.96 8.26 33.92 8.32L33.92 6.73C32.16 7.17 32.47 7.08 31.88 7.20ZM36.67 2.58L36.69 3.05C36.96 3.00 37.45 2.91 37.49 2.91C37.72 2.91 37.74 3.02 37.74 3.61L37.74 11.59C37.74 11.94 37.58 11.97 37.11 11.97L36.81 11.97L36.81 12.42L39.86 12.42L39.86 11.97L39.62 11.97C38.88 11.97 38.72 11.94 38.72 11.59L38.72 2.25C38.04 2.38 37.38 2.48 36.67 2.58ZM39.98 15.41C39.98 15.76 40.19 16.04 40.54 16.04C41.03 16.04 41.55 16.00 42.99 12.82L45.12 8.12C45.42 7.46 45.39 7.38 45.88 7.38L46.21 7.38L46.21 6.93L43.93 6.93L43.93 7.38L44.13 7.38C44.56 7.38 44.74 7.39 44.74 7.57C44.74 7.71 44.55 8.16 44.28 8.75L43.40 10.74L42.21 8.06C42.14 7.90 42.04 7.70 42.04 7.57C42.04 7.39 42.21 7.38 42.53 7.38L42.77 7.38L42.80 6.93L40.12 6.93L40.15 7.38C40.88 7.38 40.80 7.41 41.13 8.13L42.88 11.90L42.46 12.71C41.61 14.36 41.20 14.85 40.92 14.85C40.81 14.85 40.59 14.83 40.52 14.83C40.22 14.83 39.98 14.99 39.98 15.41Z"></path></g><defs data-v-423bf9ae=""><linearGradient data-v-423bf9ae="" gradientTransform="rotate(25)" id="bf8fdd23-bbef-47f1-8493-3206b8855b1b" x1="0%" y1="0%" x2="100%" y2="0%"><stop data-v-423bf9ae="" offset="0%" style="stop-color: rgb(30, 11, 54); stop-opacity: 1;"></stop><stop data-v-423bf9ae="" offset="100%" style="stop-color: rgb(202, 55, 130); stop-opacity: 1;"></stop></linearGradient></defs><g data-v-423bf9ae="" id="243548f7-138f-428a-b97f-d318cc02e011" transform="matrix(1.3517965924560993,0,0,1.3517965924560993,-13.562485699724377,-23.072336713701958)" stroke="none" fill="url(#bf8fdd23-bbef-47f1-8493-3206b8855b1b)"><path d="M46.769 20.261c.547 0 1.095.181 1.513.542l12.837 11.105c.306.264.59.39.827.39.413 0 .686-.381.686-1.082v-2.679a2 2 0 0 1 2-2h4.995a2 2 0 0 1 2 2v10.46c0 1.104.677 2.586 1.513 3.309l6.235 5.394c.836.723.617 1.309-.487 1.309h-5.261c-1.104 0-2 .793-2 1.771V78.84a2 2 0 0 1-2 2H23.912a2 2 0 0 1-2-2V51.01a2 2 0 0 0-2-2h-5.261c-1.104 0-1.323-.586-.487-1.309l31.093-26.897a2.304 2.304 0 0 1 1.512-.543m0-3a5.31 5.31 0 0 0-3.475 1.272L12.201 45.432c-2.044 1.767-1.537 3.692-1.333 4.24.204.549 1.08 2.337 3.783 2.337h4.261v26.83c0 2.757 2.243 5 5 5h45.715c2.757 0 5-2.243 5-5V52.009h4.261c2.703 0 3.579-1.788 3.783-2.337.204-.548.711-2.474-1.334-4.241l-6.234-5.394c-.19-.18-.464-.779-.476-1.046V28.537c0-2.757-2.243-5-5-5h-4.995a5.01 5.01 0 0 0-4.723 3.357l-9.664-8.36a5.31 5.31 0 0 0-3.476-1.273z"></path></g><!----></svg>